<svg width="36" height="34" viewBox="0 0 36 34" fill="none" xmlns="http://www.w3.org/2000/svg">
<path d="M34.8996 13.8658L20.7333 0.52879C20.3828 0.193239 19.9815 0.0119441 19.5713 0.00384694C19.1611 -0.0042502 18.757 0.161148 18.4013 0.48276C18.0154 0.836413 17.6958 1.34449 17.475 1.95539C17.2542 2.56629 17.1401 3.25826 17.1442 3.96101V13.291L3.58913 0.52525C3.23866 0.189698 2.83737 0.00840342 2.42716 0.000306278C2.01695 -0.00779086 1.61289 0.157607 1.25719 0.479219C0.871239 0.832873 0.55164 1.34095 0.330849 1.95185C0.110059 2.56275 -0.00405774 3.25472 8.86666e-05 3.95747V30.0414C-0.00419061 30.7443 0.109863 31.4366 0.33066 32.0477C0.551457 32.6588 0.871128 33.1671 1.25719 33.5208C1.61289 33.8424 2.01695 34.0078 2.42716 33.9997C2.83737 33.9916 3.23866 33.8103 3.58913 33.4748L17.1442 20.7031V30.0367C17.1394 30.7404 17.2532 31.4336 17.474 32.0456C17.6949 32.6577 18.0148 33.1667 18.4013 33.5208C18.757 33.8424 19.1611 34.0078 19.5713 33.9997C19.9815 33.9916 20.3828 33.8103 20.7333 33.4748L34.8996 20.1378C35.2364 19.8058 35.5141 19.3446 35.7065 18.7975C35.899 18.2505 36 17.6354 36 17.0101C36 16.3847 35.899 15.7697 35.7065 15.2226C35.5141 14.6755 35.2364 14.2143 34.8996 13.8823V13.8658Z" fill="white"/>
</svg>
